<mxfile host="app.diagrams.net" agent="Mozilla/5.0 (X11; Linux x86_64) AppleWebKit/537.36 (KHTML, like Gecko) Chrome/135.0.0.0 Safari/537.36" version="26.2.14">
  <diagram name="Pàgina-1" id="-eSHo4wCkmtiP3OurELg">
    <mxGraphModel dx="1163" dy="588" grid="1" gridSize="10" guides="1" tooltips="1" connect="1" arrows="1" fold="1" page="1" pageScale="1" pageWidth="827" pageHeight="1169" math="0" shadow="0">
      <root>
        <mxCell id="0" />
        <mxCell id="1" parent="0" />
        <mxCell id="96oHFtbUmL7AAagO4APv-4" value="&lt;span style=&quot;box-sizing: border-box; font-variant-ligatures: normal; font-variant-caps: normal; letter-spacing: normal; orphans: 2; text-align: left; text-indent: 0px; text-transform: none; widows: 2; word-spacing: 0px; -webkit-text-stroke-width: 0px; white-space: normal; text-decoration-thickness: initial; text-decoration-style: initial; text-decoration-color: initial; font-family: Comfortaa, Arial; font-style: italic; vertical-align: baseline;&quot; class=&quot;C9DxTc&quot;&gt;&lt;font style=&quot;color: rgb(0, 0, 0);&quot;&gt;&lt;b style=&quot;&quot;&gt;Registrar nova incidència&lt;/b&gt;&lt;/font&gt;&lt;/span&gt;" style="ellipse;whiteSpace=wrap;html=1;" vertex="1" parent="1">
          <mxGeometry x="240" y="80" width="120" height="80" as="geometry" />
        </mxCell>
        <mxCell id="96oHFtbUmL7AAagO4APv-5" value="&lt;font style=&quot;color: rgb(0, 0, 0);&quot;&gt;&lt;b&gt;&lt;span style=&quot;box-sizing: border-box; text-align: left; font-family: Comfortaa, Arial; font-style: italic; vertical-align: baseline;&quot; class=&quot;C9DxTc&quot;&gt;Estat de una incidència&lt;/span&gt;&lt;/b&gt;&lt;/font&gt;" style="ellipse;whiteSpace=wrap;html=1;" vertex="1" parent="1">
          <mxGeometry x="320" y="170" width="120" height="80" as="geometry" />
        </mxCell>
        <mxCell id="96oHFtbUmL7AAagO4APv-6" value="&lt;span style=&quot;font-family: Comfortaa, Arial; font-style: italic; text-align: left;&quot;&gt;&lt;font style=&quot;font-size: 13px; color: rgb(0, 0, 0);&quot;&gt;&lt;b style=&quot;&quot;&gt;Modificar incidència&lt;/b&gt;&lt;/font&gt;&lt;/span&gt;" style="ellipse;whiteSpace=wrap;html=1;" vertex="1" parent="1">
          <mxGeometry x="370" y="260" width="120" height="80" as="geometry" />
        </mxCell>
        <mxCell id="96oHFtbUmL7AAagO4APv-7" value="&lt;span style=&quot;font-family: Comfortaa, Arial; font-style: italic; text-align: left;&quot;&gt;&lt;font style=&quot;font-size: 13px; color: rgb(0, 0, 0);&quot;&gt;&lt;b style=&quot;&quot;&gt;Registrar actuació&lt;/b&gt;&lt;/font&gt;&lt;/span&gt;" style="ellipse;whiteSpace=wrap;html=1;" vertex="1" parent="1">
          <mxGeometry x="390" y="360" width="120" height="80" as="geometry" />
        </mxCell>
        <mxCell id="96oHFtbUmL7AAagO4APv-8" value="&lt;span style=&quot;font-family: Comfortaa, Arial; font-style: italic; text-align: left;&quot;&gt;&lt;font style=&quot;font-size: 13px; color: rgb(0, 0, 0);&quot;&gt;&lt;b style=&quot;&quot;&gt;Informe de Tècnics&lt;/b&gt;&lt;/font&gt;&lt;/span&gt;" style="ellipse;whiteSpace=wrap;html=1;" vertex="1" parent="1">
          <mxGeometry x="240" y="640" width="120" height="80" as="geometry" />
        </mxCell>
        <mxCell id="96oHFtbUmL7AAagO4APv-9" value="&lt;span style=&quot;box-sizing: border-box; text-align: left; font-family: Comfortaa, Arial; font-style: italic; vertical-align: baseline;&quot; class=&quot;C9DxTc&quot;&gt;&lt;font style=&quot;font-size: 13px; color: rgb(0, 0, 0);&quot;&gt;&lt;b style=&quot;&quot;&gt;Consum per departaments&lt;/b&gt;&lt;/font&gt;&lt;/span&gt;" style="ellipse;whiteSpace=wrap;html=1;" vertex="1" parent="1">
          <mxGeometry x="370" y="460" width="120" height="80" as="geometry" />
        </mxCell>
        <mxCell id="96oHFtbUmL7AAagO4APv-10" value="&lt;span style=&quot;font-family: Comfortaa, Arial; font-style: italic; text-align: justify;&quot;&gt;&lt;font style=&quot;font-size: 13px;&quot;&gt;&lt;b style=&quot;&quot;&gt;Estadístiques d&#39;Accés&lt;/b&gt;&lt;/font&gt;&lt;/span&gt;" style="ellipse;whiteSpace=wrap;html=1;" vertex="1" parent="1">
          <mxGeometry x="320" y="560" width="120" height="80" as="geometry" />
        </mxCell>
        <mxCell id="96oHFtbUmL7AAagO4APv-1" value="Client" style="shape=umlActor;verticalLabelPosition=bottom;verticalAlign=top;html=1;outlineConnect=0;fillColor=#f8cecc;strokeColor=#b85450;gradientColor=#ea6b66;" vertex="1" parent="1">
          <mxGeometry x="90" y="370" width="30" height="60" as="geometry" />
        </mxCell>
        <mxCell id="96oHFtbUmL7AAagO4APv-19" value="" style="endArrow=classic;html=1;rounded=0;" edge="1" parent="1" target="96oHFtbUmL7AAagO4APv-4">
          <mxGeometry width="50" height="50" relative="1" as="geometry">
            <mxPoint x="110" y="354.22" as="sourcePoint" />
            <mxPoint x="239.9971842700025" y="149.99708763999658" as="targetPoint" />
          </mxGeometry>
        </mxCell>
        <mxCell id="96oHFtbUmL7AAagO4APv-20" value="" style="endArrow=classic;html=1;rounded=0;" edge="1" parent="1">
          <mxGeometry width="50" height="50" relative="1" as="geometry">
            <mxPoint x="100" y="470" as="sourcePoint" />
            <mxPoint x="239.99964197275088" y="654.1195156101924" as="targetPoint" />
          </mxGeometry>
        </mxCell>
        <mxCell id="96oHFtbUmL7AAagO4APv-21" value="" style="endArrow=classic;html=1;rounded=0;" edge="1" parent="1">
          <mxGeometry width="50" height="50" relative="1" as="geometry">
            <mxPoint x="130" y="398.87" as="sourcePoint" />
            <mxPoint x="322.31884390444725" y="239.99791155719583" as="targetPoint" />
          </mxGeometry>
        </mxCell>
        <mxCell id="96oHFtbUmL7AAagO4APv-22" value="" style="endArrow=classic;html=1;rounded=0;" edge="1" parent="1">
          <mxGeometry width="50" height="50" relative="1" as="geometry">
            <mxPoint x="130" y="420" as="sourcePoint" />
            <mxPoint x="370" y="420" as="targetPoint" />
          </mxGeometry>
        </mxCell>
        <mxCell id="96oHFtbUmL7AAagO4APv-23" value="" style="endArrow=classic;html=1;rounded=0;" edge="1" parent="1">
          <mxGeometry width="50" height="50" relative="1" as="geometry">
            <mxPoint x="130" y="450" as="sourcePoint" />
            <mxPoint x="310" y="570" as="targetPoint" />
          </mxGeometry>
        </mxCell>
        <mxCell id="96oHFtbUmL7AAagO4APv-24" value="" style="endArrow=classic;html=1;rounded=0;entryX=0.008;entryY=0.625;entryDx=0;entryDy=0;entryPerimeter=0;" edge="1" parent="1" target="96oHFtbUmL7AAagO4APv-6">
          <mxGeometry width="50" height="50" relative="1" as="geometry">
            <mxPoint x="130" y="410" as="sourcePoint" />
            <mxPoint x="270" y="340" as="targetPoint" />
          </mxGeometry>
        </mxCell>
        <mxCell id="96oHFtbUmL7AAagO4APv-25" value="" style="endArrow=classic;html=1;rounded=0;" edge="1" parent="1">
          <mxGeometry width="50" height="50" relative="1" as="geometry">
            <mxPoint x="130" y="430" as="sourcePoint" />
            <mxPoint x="360" y="500" as="targetPoint" />
          </mxGeometry>
        </mxCell>
      </root>
    </mxGraphModel>
  </diagram>
</mxfile>
